<?xml version="1.0" encoding="utf-8"?>
<!-- Generator: Adobe Illustrator 16.0.0, SVG Export Plug-In . SVG Version: 6.00 Build 0)  -->
<!DOCTYPE svg PUBLIC "-//W3C//DTD SVG 1.0//EN" "http://www.w3.org/TR/2001/REC-SVG-20010904/DTD/svg10.dtd">
<svg version="1.0" id="Layer_2" xmlns="http://www.w3.org/2000/svg" xmlns:xlink="http://www.w3.org/1999/xlink" x="0px" y="0px"
	 width="96px" height="96px" viewBox="0 0 96 96" enable-background="new 0 0 96 96" xml:space="preserve">
<path fill="#7B89A2" d="M86.69,80.129L67.785,47.383c-0.003-0.004-0.007-0.007-0.009-0.011c-0.029-0.047-0.047-0.102-0.081-0.143
	L48.79,14.484c-0.22-0.382-0.627-0.617-1.067-0.617s-0.847,0.235-1.068,0.617L27.661,47.383l-18.996,32.9
	c-0.221,0.382-0.221,0.852,0,1.232c0.221,0.382,0.627,0.616,1.068,0.616h37.99c0.006,0,0.012,0,0.017,0h37.973
	c0.008,0,0.014,0,0.018,0c0.681,0,1.232-0.552,1.232-1.232C86.961,80.607,86.86,80.341,86.69,80.129z M47.723,78.434l-16.86-29.201
	h33.718L47.723,78.434z M47.723,17.566l16.858,29.201H30.863L47.723,17.566z M11.868,79.666l16.859-29.2l16.86,29.2H11.868z
	 M49.857,79.666l16.86-29.2l16.859,29.2H49.857z"/>
</svg>
