<?xml version="1.0" encoding="utf-8"?>
<!-- Generator: Adobe Illustrator 16.0.0, SVG Export Plug-In . SVG Version: 6.00 Build 0)  -->
<!DOCTYPE svg PUBLIC "-//W3C//DTD SVG 1.0//EN" "http://www.w3.org/TR/2001/REC-SVG-20010904/DTD/svg10.dtd">
<svg version="1.0" id="Layer_1" xmlns="http://www.w3.org/2000/svg" xmlns:xlink="http://www.w3.org/1999/xlink" x="0px" y="0px"
	 width="60px" height="60px" viewBox="0 0 60 60" enable-background="new 0 0 60 60" xml:space="preserve">
<g>
	<path fill="#7B89A2" d="M29.998,6.834c12.776,0,23.168,10.392,23.168,23.166c0,12.773-10.392,23.165-23.168,23.165
		C17.226,53.165,6.834,42.773,6.834,30C6.834,17.226,17.226,6.834,29.998,6.834 M29.998,5C16.191,5,5,16.193,5,30
		c0,13.806,11.191,25,24.998,25C43.806,55,55,43.806,55,30C55,16.193,43.806,5,29.998,5L29.998,5z"/>
	<path fill="#7B89A2" d="M13.309,21.897v2.881c0,4.587,3.716,8.304,8.305,8.304c4.585,0,8.305-3.717,8.305-8.304h0.163
		c0,4.587,3.719,8.304,8.305,8.304c4.585,0,8.305-3.717,8.305-8.304v-2.881H13.309z"/>
	<g>
		<path fill="#7B89A2" d="M41.784,38.486h-2.165c-2.21,3.222-5.641,5.536-9.621,6.277v1.858
			C35.03,45.792,39.301,42.731,41.784,38.486z"/>
	</g>
</g>
</svg>
