<?xml version="1.0" encoding="utf-8"?>
<!-- Generator: Adobe Illustrator 16.0.0, SVG Export Plug-In . SVG Version: 6.00 Build 0)  -->
<!DOCTYPE svg PUBLIC "-//W3C//DTD SVG 1.0//EN" "http://www.w3.org/TR/2001/REC-SVG-20010904/DTD/svg10.dtd">
<svg version="1.0" id="Layer_1" xmlns="http://www.w3.org/2000/svg" xmlns:xlink="http://www.w3.org/1999/xlink" x="0px" y="0px"
	 width="60px" height="60px" viewBox="0 0 60 60" enable-background="new 0 0 60 60" xml:space="preserve">
<g>
	<path fill="#7B89A2" d="M22.507,47.5c0,2.92,1.533,4.189,3.887,4.697C26.833,53.77,28.328,55,30.007,55
		c1.67,0,3.174-1.23,3.614-2.803c2.344-0.508,3.887-1.777,3.887-4.697c0-0.498,0-2.002,0-2.5h-15
		C22.507,45.498,22.507,47.002,22.507,47.5z M24.333,46.826h11.348V47.5c0,1.758-0.645,2.52-2.441,2.91l-1.074,0.225l-0.303,1.064
		c-0.225,0.82-1.045,1.465-1.856,1.465s-1.631-0.645-1.865-1.465l-0.293-1.064l-1.074-0.225c-1.807-0.391-2.441-1.152-2.441-2.91
		V46.826z"/>
	<path fill="#7B89A2" d="M30.203,5c-0.146,0-0.293,0-0.449,0c-9.248,0.254-16.992,7.754-17.246,16.748
		c-0.244,5.996,2.5,11.504,7.002,14.746c2.002,1.504,2.998,3.75,2.998,6.006h3.74h1.826h3.702h1.826h3.906
		c0-2.256,0.996-4.502,2.744-6.006c4.502-2.998,7.256-8.252,7.256-13.994C47.508,12.9,39.744,5,30.203,5z M28.074,40.674V27.5
		l1.846,1.631l1.856-1.631v13.174H28.074z M39.236,34.98l-0.088,0.059l-0.078,0.068c-1.66,1.426-2.793,3.418-3.213,5.566h-2.256
		V23.467l-3.682,3.232l-3.672-3.232v17.207h-2.09c-0.439-2.236-1.689-4.238-3.574-5.654c-4.131-2.988-6.475-7.92-6.25-13.223
		c0.225-8.027,7.168-14.746,15.469-14.971c0.137,0,0.264,0,0.4,0c8.536,0,15.479,7.031,15.479,15.674
		C45.682,27.627,43.27,32.295,39.236,34.98z"/>
</g>
</svg>
