<?xml version="1.0" encoding="utf-8"?>
<!-- Generator: Adobe Illustrator 16.0.0, SVG Export Plug-In . SVG Version: 6.00 Build 0)  -->
<!DOCTYPE svg PUBLIC "-//W3C//DTD SVG 1.0//EN" "http://www.w3.org/TR/2001/REC-SVG-20010904/DTD/svg10.dtd">
<svg version="1.0" id="Layer_2" xmlns="http://www.w3.org/2000/svg" xmlns:xlink="http://www.w3.org/1999/xlink" x="0px" y="0px"
	 width="96px" height="96px" viewBox="0 0 96 96" enable-background="new 0 0 96 96" xml:space="preserve">
<g>
	<path fill="#7C89A1" d="M48,12.271l30,11.761V51.5c0,19.542-24.311,32.403-30.002,35.146C42.299,83.908,18,71.082,18,51.5V24.032
		L48,12.271 M48,9.049L15,21.985c0,0,0,18.403,0,29.515c0,24.305,33,38.451,33,38.451S81,75.805,81,51.5c0-11.111,0-29.515,0-29.515
		L48,9.049L48,9.049z"/>
	<path fill="#7C89A1" d="M48.018,38.5c1.665,0,3.02,1.354,3.02,3.02c0,1.17-1.076,2.735-2.216,3.222
		c-0.306,0.131-0.582,0.309-0.821,0.522c-0.239-0.214-0.516-0.392-0.821-0.522C46.038,44.254,45,42.719,45,41.52
		C45,39.854,46.354,38.5,48.018,38.5 M48.018,35.5C44.694,35.5,42,38.195,42,41.52c0,2.484,1.852,5.063,4,5.98v15h4v-15
		c2.149-0.918,4.037-3.496,4.037-5.98C54.037,38.195,51.342,35.5,48.018,35.5L48.018,35.5z"/>
</g>
</svg>
