<?xml version="1.0" encoding="utf-8"?>
<!-- Generator: Adobe Illustrator 16.0.0, SVG Export Plug-In . SVG Version: 6.00 Build 0)  -->
<!DOCTYPE svg PUBLIC "-//W3C//DTD SVG 1.0//EN" "http://www.w3.org/TR/2001/REC-SVG-20010904/DTD/svg10.dtd">
<svg version="1.0" id="Layer_1" xmlns="http://www.w3.org/2000/svg" xmlns:xlink="http://www.w3.org/1999/xlink" x="0px" y="0px"
	 width="60px" height="60px" viewBox="0 0 60 60" enable-background="new 0 0 60 60" xml:space="preserve">
<g id="Livello_82_1_">
	<g>
		<path fill="#7B89A2" d="M29.996,51.259c-0.777,0-1.506-0.333-2.016-0.919L9.354,32.572c-0.013-0.013-0.025-0.023-0.034-0.038
			C6.572,29.94,5,26.298,5,22.53c0-7.603,6.204-13.789,13.831-13.789c4.477,0,8.567,2.093,11.167,5.657
			c2.604-3.564,6.691-5.657,11.171-5.657C48.794,8.741,55,14.928,55,22.53c0,3.762-1.568,7.402-4.311,9.993
			c-0.012,0.017-0.027,0.033-0.044,0.049l-18.748,17.88C31.426,50.956,30.722,51.259,29.996,51.259z M10.502,31.459l18.613,17.754
			c0.02,0.02,0.041,0.044,0.061,0.065c0.392,0.472,1.169,0.499,1.59,0.051l18.723-17.86c0.02-0.02,0.035-0.038,0.054-0.057
			c2.49-2.33,3.858-5.483,3.858-8.882c0-6.724-5.486-12.191-12.23-12.191c-4.33,0-8.25,2.21-10.485,5.912
			c-0.293,0.477-1.079,0.479-1.368,0c-2.236-3.702-6.156-5.912-10.485-5.912c-6.748,0-12.234,5.468-12.234,12.191
			c0,3.398,1.368,6.552,3.858,8.882C10.471,31.428,10.486,31.443,10.502,31.459z"/>
	</g>
</g>
</svg>
