<?xml version="1.0" encoding="utf-8"?>
<!-- Generator: Adobe Illustrator 16.0.0, SVG Export Plug-In . SVG Version: 6.00 Build 0)  -->
<!DOCTYPE svg PUBLIC "-//W3C//DTD SVG 1.0//EN" "http://www.w3.org/TR/2001/REC-SVG-20010904/DTD/svg10.dtd">
<svg version="1.0" id="Layer_2" xmlns="http://www.w3.org/2000/svg" xmlns:xlink="http://www.w3.org/1999/xlink" x="0px" y="0px"
	 width="96px" height="96px" viewBox="0 0 96 96" enable-background="new 0 0 96 96" xml:space="preserve">
<path fill="#7B89A2" d="M81.917,70.339c-4.732-4.572-12.547-9.353-19.934-11.287c4.05-16.126-9.541-40.427-21.814-52.7
	c-0.563-0.563-1.559-0.563-2.121,0c-12.664,12.664-27.362,39.733-20.81,55.551c2.088,5.042,7.343,11,20.37,11.432V88.57
	c0,0.828,0.672,1.5,1.5,1.5s1.5-0.672,1.5-1.5V73.376h3.063c0.714,10.594,7.684,12.226,11.89,12.226
	c8.895,0,20.236-6.771,26.393-13.142c0.276-0.286,0.428-0.67,0.421-1.067C82.368,70.994,82.203,70.615,81.917,70.339z M20.01,60.754
	c-5.663-13.671,7.051-38.47,19.101-51.193c12.772,13.382,23.304,35.49,19.922,48.862c-1.137-0.175-2.253-0.271-3.331-0.271
	c-3.679,0-6.6,1.074-8.682,3.192c-2.055,2.091-3.188,5.124-3.38,9.032h-3.031V48.542c0-0.829-0.672-1.5-1.5-1.5s-1.5,0.671-1.5,1.5
	v21.803C28.44,70.032,22.52,66.813,20.01,60.754z M55.562,82.602c-5.507,0-8.422-3.023-8.885-9.226h14.506
	c0.828,0,1.5-0.672,1.5-1.5s-0.672-1.5-1.5-1.5H46.648c0.173-3.072,1.01-5.403,2.511-6.93c1.497-1.522,3.698-2.295,6.542-2.295
	c7.272,0,17.052,5.074,23.001,10.305C72.724,77.107,62.871,82.602,55.562,82.602z"/>
</svg>
