<?xml version="1.0" encoding="utf-8"?>
<!-- Generator: Adobe Illustrator 16.0.0, SVG Export Plug-In . SVG Version: 6.00 Build 0)  -->
<!DOCTYPE svg PUBLIC "-//W3C//DTD SVG 1.0//EN" "http://www.w3.org/TR/2001/REC-SVG-20010904/DTD/svg10.dtd">
<svg version="1.0" id="Layer_2" xmlns="http://www.w3.org/2000/svg" xmlns:xlink="http://www.w3.org/1999/xlink" x="0px" y="0px"
	 width="96px" height="96px" viewBox="0 0 96 96" enable-background="new 0 0 96 96" xml:space="preserve">
<path fill="none" d="M48,11c-10.477,0-19,8.523-19,19v10h38V30C67,19.523,58.477,11,48,11z"/>
<g>
	<path fill="#7C89A1" d="M46,65v11h4V65c2.149-0.918,4.037-3.496,4.037-5.98c0-3.324-2.695-6.02-6.02-6.02
		C44.694,53,42,55.695,42,59.02C42,61.504,43.852,64.082,46,65z M48.018,56c1.665,0,3.02,1.354,3.02,3.02
		c0,1.17-1.076,2.735-2.216,3.222c-0.306,0.131-0.582,0.309-0.821,0.522c-0.239-0.214-0.516-0.392-0.821-0.522
		C46.038,61.754,45,60.219,45,59.02C45,57.354,46.354,56,48.018,56z"/>
	<path fill="#7C89A1" d="M70,40V30c0-12.15-9.85-22-22-22s-22,9.85-22,22v10h-9v49h62V40H70z M29,30c0-10.477,8.523-19,19-19
		s19,8.523,19,19v10H29V30z M76,86H20V43h56V86z"/>
</g>
</svg>
