<?xml version="1.0" encoding="utf-8"?>
<!-- Generator: Adobe Illustrator 16.0.0, SVG Export Plug-In . SVG Version: 6.00 Build 0)  -->
<!DOCTYPE svg PUBLIC "-//W3C//DTD SVG 1.0//EN" "http://www.w3.org/TR/2001/REC-SVG-20010904/DTD/svg10.dtd">
<svg version="1.0" id="Layer_1" xmlns="http://www.w3.org/2000/svg" xmlns:xlink="http://www.w3.org/1999/xlink" x="0px" y="0px"
	 width="60px" height="60px" viewBox="0 0 60 60" enable-background="new 0 0 60 60" xml:space="preserve">
<path fill="#7B89A2" d="M29.998,9.299l6.417,13.003l0.445,0.895l0.986,0.146l14.352,2.083L41.812,35.547l-0.714,0.698l0.169,0.985
	l2.452,14.293L30.88,44.774l-0.882-0.465l-0.886,0.465l-12.835,6.749l2.452-14.293l0.169-0.985l-0.717-0.698L7.799,25.425
	l14.348-2.083l0.993-0.146l0.441-0.895L29.998,9.299 M29.998,5l-8.124,16.462L3.715,24.097l13.14,12.813L13.753,55l16.245-8.542
	L46.243,55l-3.102-18.09l13.144-12.813l-18.163-2.635L29.998,5L29.998,5z"/>
</svg>
