<?xml version="1.0" encoding="utf-8"?>
<!-- Generator: Adobe Illustrator 16.0.0, SVG Export Plug-In . SVG Version: 6.00 Build 0)  -->
<!DOCTYPE svg PUBLIC "-//W3C//DTD SVG 1.1//EN" "http://www.w3.org/Graphics/SVG/1.1/DTD/svg11.dtd">
<svg version="1.1" id="Layer_1" xmlns="http://www.w3.org/2000/svg" xmlns:xlink="http://www.w3.org/1999/xlink" x="0px" y="0px"
	 width="53.058px" height="90px" viewBox="0 0 53.058 90" enable-background="new 0 0 53.058 90" xml:space="preserve">
<path fill="#368DB3" d="M53.058,26.529v0.867h-8.481V26.24c0-9.928-8.118-18.05-18.047-18.05c-9.926,0-18.048,8.122-18.048,18.05
	v1.156H0v-0.867C0,11.938,11.938,0,26.529,0C41.121,0,53.058,11.938,53.058,26.529z M8.491,63.632H0.005
	C0.092,78.15,11.995,90,26.529,90c1.799,0,3.556-0.184,5.255-0.529v-8.762c-1.665,0.51-3.429,0.789-5.255,0.789
	C16.667,81.498,8.591,73.474,8.491,63.632z M0,46.163h22.323v17.469h9.384V46.163h21.351V37.75H0V46.163z"/>
</svg>
