<?xml version="1.0" encoding="utf-8"?>
<!-- Generator: Adobe Illustrator 16.0.0, SVG Export Plug-In . SVG Version: 6.00 Build 0)  -->
<!DOCTYPE svg PUBLIC "-//W3C//DTD SVG 1.0//EN" "http://www.w3.org/TR/2001/REC-SVG-20010904/DTD/svg10.dtd">
<svg version="1.0" id="Layer_1" xmlns="http://www.w3.org/2000/svg" xmlns:xlink="http://www.w3.org/1999/xlink" x="0px" y="0px"
	 width="121px" height="36px" viewBox="0 0 121 36" enable-background="new 0 0 121 36" xml:space="preserve">
<g>
	<g>
		<path fill="#FFFFFF" d="M77.884,32.233V29.65h0.188v2.583H77.884z"/>
		<path fill="#FFFFFF" d="M80.782,32.233h-0.188l-1.584-2.294h-0.014c0.014,0.273,0.021,0.479,0.021,0.617v1.677h-0.178V29.65h0.186
			l1.582,2.289h0.012c-0.012-0.214-0.018-0.414-0.018-0.605V29.65h0.18V32.233z"/>
		<path fill="#FFFFFF" d="M83.026,31.566c0,0.216-0.082,0.387-0.246,0.513s-0.381,0.189-0.652,0.189
			c-0.328,0-0.578-0.035-0.752-0.106v-0.178c0.191,0.077,0.439,0.117,0.736,0.117c0.219,0,0.393-0.049,0.521-0.146
			c0.129-0.096,0.193-0.225,0.193-0.382c0-0.097-0.021-0.178-0.063-0.243c-0.043-0.064-0.113-0.123-0.209-0.176
			s-0.238-0.109-0.426-0.171c-0.271-0.09-0.461-0.188-0.564-0.293c-0.105-0.105-0.156-0.247-0.156-0.422
			c0-0.193,0.078-0.352,0.234-0.474s0.357-0.182,0.604-0.182c0.252,0,0.488,0.046,0.709,0.138l-0.068,0.155
			c-0.223-0.09-0.434-0.135-0.637-0.135c-0.197,0-0.354,0.045-0.471,0.132c-0.117,0.089-0.176,0.209-0.176,0.362
			c0,0.095,0.018,0.173,0.055,0.233c0.035,0.062,0.094,0.115,0.176,0.167c0.08,0.047,0.223,0.106,0.42,0.174
			c0.209,0.069,0.365,0.138,0.471,0.202c0.104,0.065,0.182,0.14,0.229,0.224C83.003,31.35,83.026,31.447,83.026,31.566z"/>
		<path fill="#FFFFFF" d="M85.212,30.392c0,0.249-0.088,0.44-0.264,0.573c-0.176,0.134-0.424,0.201-0.746,0.201H83.79v1.067h-0.188
			V29.65h0.654C84.894,29.65,85.212,29.897,85.212,30.392z M83.79,31.009h0.367c0.301,0,0.518-0.046,0.652-0.143
			c0.133-0.096,0.201-0.252,0.201-0.468c0-0.199-0.064-0.347-0.189-0.442c-0.127-0.095-0.324-0.144-0.59-0.144H83.79V31.009z"/>
		<path fill="#FFFFFF" d="M85.804,32.233V29.65h0.186v2.583H85.804z"/>
		<path fill="#FFFFFF" d="M86.946,31.107v1.126h-0.188V29.65h0.637c0.33,0,0.576,0.059,0.734,0.177
			c0.16,0.119,0.238,0.296,0.238,0.534c0,0.174-0.047,0.319-0.143,0.438c-0.094,0.12-0.238,0.205-0.43,0.257l0.727,1.178h-0.225
			l-0.688-1.126H86.946z M86.946,30.951h0.51c0.225,0,0.4-0.049,0.525-0.146c0.123-0.098,0.186-0.24,0.186-0.43
			c0-0.197-0.061-0.339-0.182-0.429c-0.123-0.09-0.322-0.135-0.598-0.135h-0.441V30.951z"/>
		<path fill="#FFFFFF" d="M90.282,31.32h-1.086l-0.373,0.913h-0.207l1.076-2.595h0.117l1.053,2.595h-0.209L90.282,31.32z
			 M89.265,31.158h0.957l-0.365-0.931c-0.031-0.073-0.066-0.175-0.109-0.304c-0.033,0.113-0.07,0.216-0.107,0.307L89.265,31.158z"/>
		<path fill="#FFFFFF" d="M93.196,32.233h-0.188l-1.584-2.294h-0.014c0.014,0.273,0.021,0.479,0.021,0.617v1.677h-0.18V29.65h0.188
			l1.582,2.289h0.01c-0.01-0.214-0.016-0.414-0.016-0.605V29.65h0.18V32.233z"/>
		<path fill="#FFFFFF" d="M95.995,30.915c0,0.435-0.119,0.762-0.354,0.985c-0.236,0.222-0.58,0.333-1.037,0.333h-0.639V29.65h0.723
			c0.426,0,0.75,0.108,0.971,0.322C95.884,30.188,95.995,30.502,95.995,30.915z M95.792,30.924c0-0.37-0.098-0.648-0.291-0.836
			c-0.193-0.186-0.482-0.279-0.857-0.279h-0.492v2.266h0.443C95.394,32.074,95.792,31.689,95.792,30.924z"/>
		<path fill="#FFFFFF" d="M98.866,30.938c0,0.409-0.105,0.733-0.318,0.973c-0.211,0.237-0.504,0.358-0.877,0.358
			c-0.371,0-0.664-0.121-0.875-0.358c-0.213-0.239-0.32-0.564-0.32-0.977c0-0.411,0.109-0.734,0.322-0.971
			c0.215-0.235,0.506-0.354,0.877-0.354c0.373,0,0.664,0.118,0.875,0.356C98.763,30.202,98.866,30.526,98.866,30.938z
			 M96.681,30.938c0,0.37,0.084,0.656,0.256,0.858c0.17,0.2,0.416,0.303,0.734,0.303c0.322,0,0.566-0.101,0.736-0.301
			c0.172-0.2,0.256-0.487,0.256-0.86c0-0.372-0.084-0.656-0.256-0.855c-0.17-0.199-0.414-0.3-0.732-0.3s-0.564,0.102-0.734,0.301
			C96.767,30.285,96.681,30.569,96.681,30.938z"/>
		<path fill="#FFFFFF" d="M101.616,29.775c-0.334,0-0.598,0.104-0.791,0.311c-0.191,0.207-0.289,0.492-0.289,0.852
			c0,0.369,0.092,0.655,0.273,0.858c0.182,0.204,0.441,0.306,0.779,0.306c0.225,0,0.43-0.027,0.617-0.083v0.159
			c-0.178,0.061-0.396,0.091-0.662,0.091c-0.375,0-0.672-0.118-0.887-0.352c-0.215-0.235-0.322-0.563-0.322-0.983
			c0-0.262,0.049-0.494,0.154-0.693c0.102-0.201,0.25-0.355,0.443-0.465c0.193-0.107,0.418-0.162,0.674-0.162
			c0.262,0,0.494,0.047,0.699,0.141l-0.074,0.162C102.036,29.822,101.831,29.775,101.616,29.775z"/>
		<path fill="#FFFFFF" d="M105.06,30.938c0,0.409-0.105,0.733-0.318,0.973c-0.211,0.237-0.504,0.358-0.877,0.358
			c-0.371,0-0.664-0.121-0.875-0.358c-0.213-0.239-0.318-0.564-0.318-0.977c0-0.411,0.105-0.734,0.318-0.971
			c0.217-0.235,0.508-0.354,0.879-0.354c0.373,0,0.664,0.118,0.875,0.356C104.956,30.202,105.06,30.526,105.06,30.938z
			 M102.872,30.938c0,0.37,0.086,0.656,0.258,0.858c0.17,0.2,0.414,0.303,0.734,0.303s0.568-0.101,0.738-0.301
			s0.254-0.487,0.254-0.86c0-0.372-0.084-0.656-0.254-0.855s-0.416-0.3-0.734-0.3s-0.563,0.102-0.736,0.301
			C102.96,30.285,102.872,30.569,102.872,30.938z"/>
		<path fill="#FFFFFF" d="M107.63,32.233h-0.189l-1.582-2.294h-0.016c0.016,0.273,0.021,0.479,0.021,0.617v1.677h-0.178V29.65h0.186
			l1.58,2.289h0.012c-0.012-0.214-0.016-0.414-0.016-0.605V29.65h0.182V32.233z"/>
		<path fill="#FFFFFF" d="M108.583,32.233h-0.188V29.65h1.465v0.166h-1.277v1.094h1.207v0.17h-1.207V32.233z"/>
		<path fill="#FFFFFF" d="M110.288,32.233V29.65h0.186v2.583H110.288z"/>
		<path fill="#FFFFFF" d="M112.528,31.32h-1.084l-0.373,0.913h-0.207l1.074-2.595h0.121l1.051,2.595h-0.211L112.528,31.32z
			 M111.511,31.158h0.957l-0.363-0.931c-0.031-0.073-0.066-0.175-0.111-0.304c-0.033,0.113-0.068,0.216-0.107,0.307L111.511,31.158z
			"/>
		<path fill="#FFFFFF" d="M115.444,32.233h-0.188l-1.586-2.294h-0.014c0.014,0.273,0.023,0.479,0.023,0.617v1.677h-0.18V29.65h0.186
			l1.582,2.289h0.012c-0.012-0.214-0.018-0.414-0.018-0.605V29.65h0.182V32.233z"/>
		<path fill="#FFFFFF" d="M117.841,32.233h-1.857v-0.135l1.564-2.278h-1.492v-0.17h1.744v0.132l-1.568,2.28h1.609V32.233z"/>
		<path fill="#FFFFFF" d="M119.667,31.32h-1.084l-0.373,0.913h-0.207l1.072-2.595h0.121l1.053,2.595h-0.211L119.667,31.32z
			 M118.651,31.158h0.955l-0.365-0.931c-0.029-0.073-0.066-0.175-0.109-0.304c-0.033,0.113-0.068,0.216-0.107,0.307L118.651,31.158z
			"/>
	</g>
	<g>
		<g>
			<path fill="#FFFFFF" d="M31.343,24.216c0.729,0,1.375-0.208,1.933-0.626c0.558-0.418,0.838-0.998,0.838-1.74h0.975l0.019,0.056
				c0.031,0.92-0.336,1.69-1.101,2.311c-0.764,0.62-1.651,0.929-2.664,0.929c-1.35,0-2.396-0.465-3.138-1.395
				c-0.743-0.929-1.114-2.123-1.114-3.585v-0.386c0-1.448,0.372-2.638,1.114-3.571c0.742-0.933,1.786-1.398,3.129-1.398
				c0.766,0,1.469,0.144,2.107,0.433c0.638,0.288,1.156,0.68,1.556,1.177l0.046,2.173h-0.939l-0.175-1.768
				c-0.294-0.331-0.66-0.593-1.1-0.786c-0.438-0.193-0.937-0.291-1.495-0.291c-1.067,0-1.857,0.382-2.37,1.146
				c-0.512,0.764-0.769,1.726-0.769,2.886v0.386c0,1.179,0.255,2.149,0.763,2.91C29.469,23.835,30.264,24.216,31.343,24.216z"/>
			<path fill="#FFFFFF" d="M46.902,15.813l-1.012,0.083l-4.023,10.648c-0.257,0.676-0.592,1.25-1.003,1.722
				c-0.412,0.473-1.013,0.709-1.803,0.709c-0.13,0-0.288-0.014-0.47-0.042c-0.185-0.027-0.318-0.056-0.405-0.086l0.13-0.923
				c0.073,0.013,0.191,0.027,0.354,0.043s0.277,0.023,0.345,0.023c0.484,0,0.868-0.17,1.151-0.507
				c0.282-0.338,0.53-0.776,0.745-1.315l0.516-1.335l-3.535-8.937l-1.012-0.083v-0.819h3.423v0.819l-1.187,0.092l2.429,6.35
				l0.35,1.196h0.056l2.724-7.546l-1.214-0.092v-0.819h3.442V15.813z"/>
			<path fill="#FFFFFF" d="M56.901,20.249c0,1.491-0.338,2.679-1.013,3.565c-0.675,0.887-1.604,1.33-2.789,1.33
				c-0.729,0-1.358-0.146-1.885-0.438c-0.529-0.29-0.955-0.709-1.28-1.256l-0.12,1.5h-0.938V11.533l-1.501-0.12v-0.82h2.595v5.964
				c0.332-0.56,0.755-0.99,1.271-1.294c0.515-0.303,1.128-0.455,1.841-0.455c1.196,0,2.131,0.477,2.806,1.43
				c0.675,0.954,1.013,2.226,1.013,3.816V20.249z M55.788,20.056c0-1.271-0.247-2.302-0.737-3.099
				c-0.491-0.793-1.215-1.191-2.172-1.191c-0.773,0-1.394,0.191-1.863,0.57c-0.47,0.381-0.818,0.869-1.045,1.464v4.501
				c0.247,0.576,0.612,1.034,1.101,1.376c0.488,0.339,1.096,0.51,1.826,0.51c0.958,0,1.678-0.355,2.163-1.067
				c0.485-0.711,0.729-1.67,0.729-2.871V20.056z"/>
			<path fill="#FFFFFF" d="M63.347,25.145c-1.251,0-2.288-0.458-3.11-1.376c-0.823-0.916-1.233-2.084-1.233-3.501v-0.507
				c0-1.423,0.41-2.605,1.229-3.542c0.819-0.939,1.809-1.409,2.968-1.409c1.221,0,2.182,0.387,2.881,1.159s1.049,1.803,1.049,3.092
				V20h-7.033v0.268c0,1.116,0.3,2.053,0.899,2.811c0.6,0.759,1.382,1.138,2.351,1.138c0.682,0,1.264-0.096,1.75-0.286
				c0.484-0.19,0.898-0.463,1.24-0.819l0.471,0.755c-0.373,0.394-0.848,0.705-1.416,0.935C64.819,25.03,64.14,25.145,63.347,25.145z
				 M63.2,15.747c-0.811,0-1.493,0.313-2.047,0.936c-0.556,0.622-0.879,1.403-0.972,2.343l0.018,0.046h5.835v-0.278
				c0-0.864-0.254-1.589-0.764-2.171C64.763,16.039,64.071,15.747,63.2,15.747z"/>
			<path fill="#FFFFFF" d="M71.671,14.993l0.139,1.657v0.118c0.281-0.612,0.666-1.093,1.154-1.439s1.068-0.52,1.734-0.52
				c0.143,0,0.277,0.01,0.41,0.032c0.131,0.021,0.242,0.045,0.326,0.069l-0.146,1.032l-0.818-0.056
				c-0.693,0-1.264,0.195-1.707,0.584c-0.445,0.389-0.764,0.924-0.953,1.605v5.945l1.5,0.12v0.81h-4.096v-0.81l1.5-0.12v-8.09
				l-1.5-0.119v-0.819h1.5H71.671z"/>
			<path fill="#FFFFFF" d="M80.706,12.554v2.439h1.746v1.888h-1.746v5.071c0,0.386,0.078,0.661,0.238,0.827
				c0.158,0.166,0.375,0.248,0.645,0.248c0.182,0,0.344-0.007,0.482-0.023c0.139-0.015,0.293-0.04,0.465-0.077l0.23,1.941
				c-0.301,0.092-0.6,0.162-0.893,0.207c-0.295,0.046-0.615,0.069-0.957,0.069c-0.928,0-1.641-0.254-2.141-0.763
				c-0.5-0.51-0.75-1.317-0.75-2.422v-5.079h-1.463v-1.888h1.463v-2.439H80.706z"/>
			<path fill="#FFFFFF" d="M84.161,23.342l1.287-0.277V16.89l-1.426-0.276v-1.62h3.93l0.119,1.454
				c0.234-0.516,0.535-0.917,0.902-1.205c0.369-0.289,0.795-0.433,1.279-0.433c0.141,0,0.291,0.01,0.445,0.032
				c0.158,0.021,0.287,0.048,0.393,0.079l-0.285,2.447L89.7,17.341c-0.393,0-0.719,0.076-0.975,0.229
				c-0.26,0.154-0.455,0.373-0.59,0.655v4.84l1.289,0.277v1.609h-5.264V23.342z"/>
			<path fill="#FFFFFF" d="M99.046,23.691c-0.32,0.465-0.713,0.825-1.182,1.076c-0.471,0.252-1.006,0.377-1.607,0.377
				c-1.049,0-1.871-0.336-2.467-1.008c-0.594-0.672-0.891-1.717-0.891-3.133V16.89l-1.096-0.276v-1.62h1.096h2.686v6.028
				c0,0.725,0.123,1.244,0.365,1.56c0.242,0.316,0.604,0.475,1.08,0.475c0.424,0,0.791-0.069,1.1-0.207
				c0.311-0.139,0.564-0.336,0.76-0.594V16.89l-1.178-0.276v-1.62h1.178h2.689v8.071l1.203,0.277v1.609h-3.561L99.046,23.691z"/>
			<path fill="#FFFFFF" d="M112.155,18.417h-1.803l-0.285-1.242c-0.184-0.147-0.416-0.269-0.695-0.369
				c-0.279-0.097-0.588-0.146-0.926-0.146c-0.473,0-0.846,0.106-1.121,0.316c-0.277,0.212-0.414,0.479-0.414,0.796
				c0,0.301,0.131,0.551,0.396,0.751c0.262,0.2,0.789,0.377,1.582,0.529c1.234,0.245,2.148,0.606,2.742,1.082
				s0.891,1.13,0.891,1.965c0,0.896-0.383,1.626-1.152,2.194s-1.785,0.852-3.041,0.852c-0.768,0-1.473-0.111-2.113-0.336
				c-0.641-0.224-1.211-0.545-1.707-0.962l-0.027-2.235h1.877l0.369,1.297c0.158,0.136,0.375,0.235,0.65,0.299
				c0.277,0.064,0.566,0.097,0.867,0.097c0.545,0,0.961-0.098,1.246-0.294c0.287-0.197,0.428-0.464,0.428-0.802
				c0-0.293-0.145-0.549-0.432-0.763c-0.289-0.214-0.818-0.406-1.592-0.57c-1.172-0.239-2.059-0.594-2.656-1.064
				c-0.598-0.469-0.896-1.108-0.896-1.918c0-0.834,0.342-1.554,1.031-2.158c0.686-0.605,1.664-0.907,2.934-0.907
				c0.775,0,1.508,0.104,2.195,0.313c0.691,0.208,1.232,0.474,1.625,0.801L112.155,18.417z"/>
			<path fill="#FFFFFF" d="M117.886,12.554v2.439h1.748v1.888h-1.748v5.071c0,0.386,0.078,0.661,0.24,0.827
				c0.158,0.166,0.373,0.248,0.643,0.248c0.184,0,0.346-0.007,0.484-0.023c0.137-0.015,0.291-0.04,0.463-0.077l0.23,1.941
				c-0.301,0.092-0.598,0.162-0.893,0.207c-0.295,0.046-0.613,0.069-0.957,0.069c-0.926,0-1.639-0.254-2.139-0.763
				c-0.5-0.51-0.752-1.317-0.752-2.422v-5.079h-1.463v-1.888h1.463v-2.439H117.886z"/>
		</g>
		<g>
			<g>
				<g>
					<path fill="#2BB7E0" d="M11.141,0.335c-5.714,0-10.39,4.675-10.39,10.389v0.339h3.322v-0.454c0-3.887,3.181-7.067,7.067-7.067
						s7.067,3.18,7.067,7.067v0.454h3.322v-0.339C21.53,5.01,16.855,0.335,11.141,0.335z"/>
				</g>
				<g>
					<path fill="#2BB7E0" d="M4.077,25.253H0.753c0.035,5.685,4.694,10.324,10.387,10.324c0.704,0,1.392-0.071,2.058-0.207v-3.431
						c-0.652,0.199-1.343,0.309-2.058,0.309C7.277,32.248,4.116,29.106,4.077,25.253z"/>
				</g>
				<g>
					<polygon fill="#2BB7E0" points="0.751,18.412 9.493,18.412 9.493,25.253 13.167,25.253 13.167,18.412 21.53,18.412 
						21.53,15.117 0.751,15.117 					"/>
				</g>
			</g>
		</g>
	</g>
</g>
</svg>
