<?xml version="1.0" encoding="utf-8"?>
<!-- Generator: Adobe Illustrator 16.0.0, SVG Export Plug-In . SVG Version: 6.00 Build 0)  -->
<!DOCTYPE svg PUBLIC "-//W3C//DTD SVG 1.1//EN" "http://www.w3.org/Graphics/SVG/1.1/DTD/svg11.dtd">
<svg version="1.1" id="Layer_1" xmlns="http://www.w3.org/2000/svg" xmlns:xlink="http://www.w3.org/1999/xlink" x="0px" y="0px"
	 width="132.333px" height="41.667px" viewBox="0 0 132.333 41.667" enable-background="new 0 0 132.333 41.667"
	 xml:space="preserve">
<g>
	<g>
		<path fill="#A8B3C6" d="M84.913,36.361V33.55h0.203v2.811H84.913z"/>
		<path fill="#A8B3C6" d="M88.064,36.361h-0.203l-1.725-2.494h-0.015c0.015,0.297,0.023,0.521,0.023,0.672v1.822H85.95V33.55h0.203
			l1.721,2.492h0.013c-0.013-0.232-0.019-0.451-0.019-0.658V33.55h0.195L88.064,36.361L88.064,36.361z"/>
		<path fill="#A8B3C6" d="M90.506,35.637c0,0.233-0.09,0.42-0.269,0.557c-0.178,0.138-0.413,0.206-0.711,0.206
			c-0.354,0-0.627-0.039-0.815-0.115v-0.195c0.209,0.086,0.477,0.129,0.801,0.129c0.238,0,0.428-0.053,0.568-0.157
			c0.14-0.104,0.209-0.244,0.209-0.416c0-0.104-0.021-0.194-0.068-0.265c-0.047-0.069-0.123-0.135-0.227-0.192
			c-0.105-0.058-0.261-0.119-0.463-0.187c-0.298-0.098-0.503-0.205-0.615-0.317c-0.113-0.115-0.17-0.271-0.17-0.459
			c0-0.211,0.084-0.384,0.256-0.515c0.17-0.135,0.389-0.198,0.656-0.198c0.274,0,0.53,0.049,0.771,0.149l-0.074,0.168
			c-0.242-0.098-0.474-0.146-0.692-0.146c-0.215,0-0.386,0.049-0.513,0.146c-0.127,0.096-0.19,0.227-0.19,0.393
			c0,0.104,0.02,0.189,0.061,0.254c0.037,0.068,0.102,0.127,0.191,0.182c0.088,0.053,0.24,0.117,0.457,0.189
			c0.227,0.076,0.396,0.15,0.51,0.221c0.115,0.072,0.197,0.152,0.25,0.242C90.48,35.4,90.506,35.507,90.506,35.637z"/>
		<path fill="#A8B3C6" d="M92.883,34.359c0,0.27-0.096,0.479-0.287,0.623c-0.189,0.145-0.461,0.219-0.811,0.219h-0.449v1.16h-0.203
			V33.55h0.711C92.538,33.55,92.883,33.82,92.883,34.359z M91.336,35.029h0.399c0.328,0,0.563-0.051,0.711-0.154
			c0.146-0.104,0.218-0.272,0.218-0.508c0-0.219-0.068-0.379-0.207-0.482c-0.138-0.104-0.351-0.155-0.642-0.155h-0.479V35.029z"/>
		<path fill="#A8B3C6" d="M93.529,36.361V33.55h0.201v2.811H93.529z"/>
		<path fill="#A8B3C6" d="M94.77,35.137v1.225h-0.203V33.55h0.693c0.359,0,0.627,0.064,0.799,0.193
			c0.174,0.129,0.258,0.322,0.258,0.582c0,0.188-0.051,0.348-0.154,0.478c-0.102,0.129-0.258,0.223-0.467,0.278l0.789,1.279h-0.242
			l-0.75-1.225L94.77,35.137L94.77,35.137z M94.77,34.966h0.555c0.246,0,0.436-0.053,0.572-0.157
			c0.135-0.104,0.201-0.263,0.201-0.468c0-0.215-0.064-0.368-0.197-0.467c-0.133-0.098-0.35-0.146-0.648-0.146H94.77V34.966z"/>
		<path fill="#A8B3C6" d="M98.4,35.369h-1.183l-0.405,0.992h-0.226l1.17-2.822h0.13l1.146,2.822h-0.23L98.4,35.369z M97.293,35.191
			h1.041l-0.398-1.012c-0.033-0.08-0.072-0.189-0.117-0.33c-0.037,0.123-0.076,0.234-0.117,0.334L97.293,35.191z"/>
		<path fill="#A8B3C6" d="M101.57,36.361h-0.204l-1.724-2.494h-0.017c0.017,0.297,0.023,0.521,0.023,0.672v1.822h-0.193V33.55h0.201
			l1.723,2.492h0.011c-0.011-0.232-0.019-0.451-0.019-0.658V33.55h0.197L101.57,36.361L101.57,36.361z"/>
		<path fill="#A8B3C6" d="M104.613,34.93c0,0.471-0.127,0.827-0.383,1.069c-0.256,0.24-0.631,0.361-1.129,0.361h-0.694V33.55h0.784
			c0.466,0,0.817,0.119,1.06,0.352C104.495,34.139,104.613,34.479,104.613,34.93z M104.395,34.938c0-0.401-0.107-0.705-0.318-0.908
			c-0.211-0.202-0.522-0.305-0.932-0.305h-0.535v2.463h0.482C103.959,36.188,104.395,35.771,104.395,34.938z"/>
		<path fill="#A8B3C6" d="M107.738,34.953c0,0.445-0.112,0.797-0.346,1.057c-0.229,0.261-0.55,0.392-0.955,0.392
			c-0.401,0-0.724-0.131-0.951-0.392c-0.231-0.26-0.348-0.612-0.348-1.061c0-0.447,0.116-0.801,0.35-1.057
			c0.234-0.256,0.552-0.385,0.953-0.385c0.406,0,0.726,0.129,0.953,0.387C107.625,34.152,107.738,34.505,107.738,34.953z
			 M105.361,34.953c0,0.402,0.093,0.713,0.277,0.932c0.187,0.222,0.452,0.33,0.799,0.33c0.353,0,0.617-0.108,0.804-0.325
			c0.186-0.22,0.276-0.529,0.276-0.937c0-0.406-0.093-0.715-0.276-0.932c-0.186-0.217-0.451-0.324-0.8-0.324
			c-0.346,0-0.612,0.109-0.799,0.326C105.456,34.242,105.361,34.55,105.361,34.953z"/>
		<path fill="#A8B3C6" d="M110.73,33.688c-0.362,0-0.649,0.112-0.86,0.338c-0.207,0.228-0.314,0.535-0.314,0.929
			c0,0.399,0.1,0.711,0.299,0.932c0.197,0.223,0.479,0.334,0.846,0.334c0.244,0,0.469-0.031,0.672-0.09v0.172
			c-0.19,0.066-0.432,0.1-0.719,0.1c-0.41,0-0.73-0.129-0.965-0.383c-0.236-0.256-0.354-0.611-0.354-1.068
			c0-0.287,0.057-0.539,0.17-0.756c0.111-0.217,0.271-0.387,0.481-0.506c0.209-0.117,0.455-0.176,0.731-0.176
			c0.285,0,0.539,0.051,0.763,0.152l-0.082,0.178C111.188,33.738,110.965,33.688,110.73,33.688z"/>
		<path fill="#A8B3C6" d="M114.477,34.953c0,0.445-0.115,0.797-0.346,1.057c-0.231,0.261-0.549,0.392-0.955,0.392
			c-0.404,0-0.723-0.131-0.953-0.392c-0.23-0.26-0.346-0.612-0.346-1.061c0-0.447,0.115-0.801,0.348-1.057
			c0.234-0.256,0.551-0.385,0.955-0.385c0.406,0,0.723,0.129,0.953,0.387C114.361,34.152,114.477,34.505,114.477,34.953z
			 M112.098,34.953c0,0.402,0.092,0.713,0.277,0.932c0.186,0.222,0.453,0.33,0.801,0.33c0.35,0,0.617-0.108,0.803-0.325
			c0.184-0.22,0.275-0.529,0.275-0.937c0-0.406-0.092-0.715-0.275-0.932c-0.186-0.217-0.451-0.324-0.799-0.324
			c-0.346,0-0.613,0.109-0.801,0.326C112.191,34.242,112.098,34.55,112.098,34.953z"/>
		<path fill="#A8B3C6" d="M117.271,36.361h-0.205l-1.724-2.494h-0.016c0.016,0.297,0.023,0.521,0.023,0.672v1.822h-0.195V33.55
			h0.203l1.721,2.492h0.014c-0.014-0.232-0.02-0.451-0.02-0.658V33.55h0.197L117.271,36.361L117.271,36.361z"/>
		<path fill="#A8B3C6" d="M118.309,36.361h-0.203V33.55h1.594v0.182h-1.391v1.191h1.313v0.184h-1.313V36.361z"/>
		<path fill="#A8B3C6" d="M120.165,36.361V33.55h0.203v2.811H120.165z"/>
		<path fill="#A8B3C6" d="M122.602,35.369h-1.18l-0.406,0.992h-0.225l1.168-2.822h0.131l1.145,2.822h-0.229L122.602,35.369z
			 M121.495,35.191h1.041l-0.396-1.012c-0.033-0.08-0.072-0.189-0.119-0.33c-0.037,0.123-0.074,0.234-0.117,0.334L121.495,35.191z"
			/>
		<path fill="#A8B3C6" d="M125.773,36.361h-0.205l-1.723-2.494h-0.017c0.017,0.297,0.023,0.521,0.023,0.672v1.822h-0.195V33.55
			h0.203l1.721,2.492h0.012c-0.012-0.232-0.018-0.451-0.018-0.658V33.55h0.197L125.773,36.361L125.773,36.361z"/>
		<path fill="#A8B3C6" d="M128.381,36.361h-2.021v-0.146l1.701-2.479h-1.625V33.55h1.897v0.146l-1.707,2.479h1.752v0.186H128.381z"
			/>
		<path fill="#A8B3C6" d="M130.368,35.369h-1.181l-0.405,0.992h-0.228l1.17-2.822h0.131L131,36.361h-0.229L130.368,35.369z
			 M129.262,35.191h1.039l-0.396-1.012c-0.031-0.08-0.072-0.189-0.119-0.33c-0.037,0.123-0.074,0.234-0.117,0.334L129.262,35.191z"
			/>
	</g>
	<g>
		<g>
			<path fill="#A8B3C6" d="M34.28,27.639c0.794,0,1.496-0.228,2.103-0.681c0.607-0.455,0.912-1.086,0.912-1.893h1.061l0.02,0.061
				c0.034,1-0.365,1.838-1.197,2.513c-0.831,0.676-1.797,1.012-2.899,1.012c-1.468,0-2.606-0.506-3.414-1.519
				c-0.807-1.01-1.212-2.311-1.212-3.897v-0.422c0-1.574,0.405-2.87,1.212-3.884c0.808-1.015,1.943-1.521,3.404-1.521
				c0.834,0,1.598,0.156,2.292,0.471c0.694,0.313,1.258,0.74,1.692,1.281l0.05,2.363h-1.021L37.094,19.6
				c-0.32-0.361-0.718-0.646-1.197-0.856c-0.477-0.21-1.019-0.315-1.626-0.315c-1.161,0-2.021,0.415-2.578,1.246
				c-0.558,0.832-0.836,1.875-0.836,3.138v0.422c0,1.281,0.277,2.336,0.83,3.164C32.242,27.225,33.106,27.639,34.28,27.639z"/>
			<path fill="#A8B3C6" d="M51.207,18.498l-1.101,0.09l-4.377,11.583c-0.279,0.734-0.644,1.359-1.091,1.873
				c-0.448,0.515-1.102,0.771-1.962,0.771c-0.141,0-0.312-0.016-0.511-0.045c-0.2-0.031-0.347-0.063-0.441-0.096l0.141-1.002
				c0.08,0.014,0.208,0.029,0.385,0.045c0.176,0.018,0.301,0.025,0.375,0.025c0.527,0,0.945-0.185,1.252-0.552
				c0.307-0.366,0.576-0.844,0.81-1.433l0.561-1.45l-3.845-9.723l-1.101-0.09v-0.891h3.724v0.891l-1.292,0.101l2.643,6.908
				l0.381,1.303h0.061l2.964-8.21l-1.322-0.101v-0.891h3.745L51.207,18.498L51.207,18.498z"/>
			<path fill="#A8B3C6" d="M62.085,23.324c0,1.621-0.367,2.914-1.103,3.879c-0.734,0.965-1.745,1.447-3.033,1.447
				c-0.795,0-1.479-0.158-2.053-0.477c-0.574-0.316-1.038-0.771-1.393-1.365l-0.13,1.631h-1.021V13.842l-1.633-0.13v-0.891h2.824
				v6.487c0.36-0.607,0.82-1.076,1.381-1.406c0.562-0.33,1.229-0.496,2.004-0.496c1.301,0,2.318,0.52,3.053,1.557
				c0.735,1.038,1.103,2.421,1.103,4.15L62.085,23.324L62.085,23.324z M60.874,23.113c0-1.381-0.267-2.504-0.802-3.369
				c-0.534-0.864-1.32-1.297-2.363-1.297c-0.841,0-1.516,0.207-2.027,0.62c-0.51,0.415-0.89,0.946-1.136,1.593v4.896
				c0.267,0.627,0.665,1.127,1.196,1.496c0.531,0.371,1.193,0.557,1.986,0.557c1.043,0,1.826-0.387,2.354-1.162
				c0.527-0.773,0.792-1.816,0.792-3.123V23.113z"/>
			<path fill="#A8B3C6" d="M69.097,28.65c-1.36,0-2.489-0.498-3.384-1.496c-0.896-0.998-1.342-2.268-1.342-3.811v-0.551
				c0-1.549,0.445-2.833,1.337-3.854c0.891-1.021,1.968-1.532,3.229-1.532c1.327,0,2.373,0.421,3.134,1.262
				c0.76,0.841,1.141,1.962,1.141,3.365v1.021h-7.65v0.29c0,1.216,0.326,2.234,0.978,3.06c0.651,0.826,1.504,1.236,2.558,1.236
				c0.741,0,1.375-0.103,1.901-0.312c0.528-0.207,0.978-0.504,1.353-0.891l0.51,0.82c-0.405,0.428-0.92,0.768-1.541,1.018
				C70.7,28.525,69.959,28.65,69.097,28.65z M68.938,18.428c-0.883,0-1.624,0.339-2.229,1.016c-0.604,0.679-0.957,1.527-1.058,2.548
				l0.02,0.051h6.347v-0.301c0-0.941-0.274-1.728-0.83-2.364C70.636,18.746,69.885,18.428,68.938,18.428z"/>
			<path fill="#A8B3C6" d="M78.152,17.607l0.149,1.803v0.13c0.31-0.668,0.728-1.189,1.259-1.567c0.528-0.377,1.16-0.565,1.887-0.565
				c0.152,0,0.304,0.012,0.445,0.035s0.262,0.048,0.354,0.074l-0.158,1.122l-0.893-0.06c-0.754,0-1.373,0.212-1.857,0.635
				c-0.483,0.425-0.827,1.007-1.037,1.748v6.468l1.634,0.129v0.881H75.48v-0.881l1.631-0.129v-8.802l-1.631-0.13v-0.891h1.631
				H78.152z"/>
			<path fill="#A8B3C6" d="M87.98,14.954v2.653h1.901v2.053H87.98v5.515c0,0.421,0.086,0.722,0.261,0.902
				c0.174,0.18,0.407,0.271,0.7,0.271c0.199,0,0.375-0.009,0.524-0.024c0.15-0.018,0.318-0.046,0.507-0.084l0.25,2.11
				c-0.326,0.101-0.65,0.176-0.972,0.226c-0.319,0.051-0.668,0.075-1.041,0.075c-1.01,0-1.785-0.274-2.328-0.83
				c-0.545-0.555-0.815-1.434-0.815-2.635V19.66h-1.592v-2.053h1.592v-2.653H87.98z"/>
			<path fill="#A8B3C6" d="M91.741,26.689l1.399-0.303v-6.717l-1.552-0.3v-1.763h4.275l0.129,1.583
				c0.254-0.563,0.582-0.999,0.982-1.313s0.865-0.471,1.391-0.471c0.154,0,0.316,0.012,0.486,0.035s0.311,0.052,0.424,0.085
				l-0.309,2.663l-1.201-0.029c-0.428,0-0.781,0.083-1.063,0.249c-0.281,0.168-0.494,0.404-0.642,0.711v5.265l1.401,0.304v1.75
				h-5.723V26.689z"/>
			<path fill="#A8B3C6" d="M107.934,27.068c-0.348,0.506-0.775,0.898-1.287,1.172c-0.51,0.273-1.094,0.41-1.746,0.41
				c-1.143,0-2.035-0.365-2.684-1.096c-0.646-0.73-0.971-1.869-0.971-3.408v-4.477l-1.191-0.3v-1.763h1.191h2.924v6.558
				c0,0.789,0.131,1.354,0.396,1.696c0.263,0.347,0.654,0.517,1.177,0.517c0.459,0,0.858-0.074,1.194-0.226
				c0.338-0.149,0.612-0.364,0.826-0.646v-5.836l-1.281-0.3v-1.763h1.281h2.924v8.78l1.312,0.303v1.75h-3.875L107.934,27.068z"/>
			<path fill="#A8B3C6" d="M122.195,21.332h-1.961l-0.312-1.351c-0.2-0.161-0.452-0.294-0.758-0.401
				c-0.303-0.106-0.639-0.161-1.006-0.161c-0.514,0-0.92,0.115-1.221,0.347c-0.301,0.229-0.451,0.52-0.451,0.865
				c0,0.327,0.145,0.6,0.432,0.818c0.287,0.217,0.859,0.407,1.724,0.573c1.342,0.269,2.336,0.66,2.981,1.179
				c0.646,0.518,0.972,1.229,0.972,2.137c0,0.975-0.419,1.771-1.257,2.389c-0.838,0.617-1.94,0.926-3.309,0.926
				c-0.834,0-1.602-0.123-2.299-0.365c-0.697-0.244-1.316-0.594-1.855-1.047l-0.03-2.432h2.043l0.399,1.41
				c0.174,0.148,0.41,0.256,0.709,0.326c0.303,0.07,0.615,0.104,0.943,0.104c0.594,0,1.045-0.106,1.355-0.319
				c0.313-0.215,0.467-0.504,0.467-0.871c0-0.32-0.158-0.599-0.471-0.832c-0.314-0.232-0.892-0.439-1.732-0.619
				c-1.275-0.262-2.238-0.646-2.889-1.158c-0.65-0.51-0.978-1.207-0.978-2.086c0-0.907,0.373-1.691,1.121-2.348
				c0.748-0.658,1.813-0.987,3.192-0.987c0.843,0,1.64,0.113,2.39,0.341c0.752,0.228,1.34,0.517,1.769,0.871L122.195,21.332z"/>
			<path fill="#A8B3C6" d="M128.428,14.954v2.653h1.902v2.053h-1.902v5.515c0,0.421,0.088,0.722,0.262,0.902
				c0.172,0.18,0.406,0.271,0.699,0.271c0.201,0,0.377-0.009,0.527-0.024c0.149-0.018,0.317-0.046,0.506-0.084l0.25,2.11
				c-0.328,0.101-0.652,0.176-0.973,0.226c-0.318,0.051-0.666,0.075-1.041,0.075c-1.009,0-1.783-0.274-2.326-0.83
				c-0.545-0.555-0.818-1.434-0.818-2.635V19.66h-1.59v-2.053h1.59v-2.653H128.428z"/>
		</g>
		<g>
			<g>
				<g>
					<path fill="#A8B3C6" d="M12.303,1.66C6.086,1.66,1,6.746,1,12.962v0.369h3.614v-0.494c0-4.228,3.459-7.688,7.688-7.688
						c4.229,0,7.688,3.46,7.688,7.688v0.494h3.614v-0.369C23.604,6.746,18.519,1.66,12.303,1.66z"/>
				</g>
				<g>
					<path fill="#A8B3C6" d="M4.618,28.768H1.002C1.041,34.953,6.109,40,12.303,40c0.766,0,1.514-0.078,2.239-0.225v-3.732
						c-0.709,0.217-1.461,0.336-2.239,0.336C8.1,36.378,4.66,32.96,4.618,28.768z"/>
				</g>
				<g>
					<polygon fill="#A8B3C6" points="1,21.324 10.51,21.324 10.51,28.768 14.508,28.768 14.508,21.324 23.604,21.324 23.604,17.743 
						1,17.743 					"/>
				</g>
			</g>
		</g>
	</g>
</g>
</svg>
